<svg xmlns="http://www.w3.org/2000/svg" xmlns:xlink="http://www.w3.org/1999/xlink" width="500" zoomAndPan="magnify" viewBox="0 0 375 374.999991" height="500" preserveAspectRatio="xMidYMid meet" version="1.0"><defs><g/><clipPath id="0c44ad2ae5"><path d="M 26.425781 26.425781 L 348.574219 26.425781 L 348.574219 348.574219 L 26.425781 348.574219 Z M 26.425781 26.425781 " clip-rule="nonzero"/></clipPath><clipPath id="84dfd560dc"><path d="M 187.5 26.425781 C 98.539062 26.425781 26.425781 98.539062 26.425781 187.5 C 26.425781 276.460938 98.539062 348.574219 187.5 348.574219 C 276.460938 348.574219 348.574219 276.460938 348.574219 187.5 C 348.574219 98.539062 276.460938 26.425781 187.5 26.425781 Z M 187.5 26.425781 " clip-rule="nonzero"/></clipPath></defs><g clip-path="url(#0c44ad2ae5)"><g clip-path="url(#84dfd560dc)"><path fill="#013d5a" d="M 26.425781 26.425781 L 348.574219 26.425781 L 348.574219 348.574219 L 26.425781 348.574219 Z M 26.425781 26.425781 " fill-opacity="1" fill-rule="nonzero"/></g></g><g fill="#fcf3e3" fill-opacity="1"><g transform="translate(79.420883, 238.718517)"><g><path d="M 70.703125 -55.5 C 81.734375 -58.65625 87.328125 -66.546875 87.328125 -77.15625 C 87.328125 -92.78125 75.28125 -102.109375 56.78125 -102.109375 L 9.328125 -102.109375 L 9.328125 0 L 57.078125 0 C 79.296875 0 90.484375 -13.765625 90.484375 -29.96875 C 90.484375 -41.4375 85.046875 -51.765625 70.703125 -55.5 Z M 53.0625 -84.890625 C 62.53125 -84.890625 66.546875 -80.453125 66.546875 -74 C 66.546875 -67.6875 62.53125 -62.671875 52.203125 -62.671875 L 30.546875 -62.671875 L 30.546875 -84.890625 Z M 30.546875 -17.921875 L 30.546875 -45.453125 L 54.34375 -45.453125 C 64.109375 -45.453125 69.703125 -40.578125 69.703125 -31.984375 C 69.703125 -23.8125 64.671875 -17.921875 53.34375 -17.921875 Z M 30.546875 -17.921875 "/></g></g><g transform="translate(176.510726, 238.718517)"><g><path d="M 63.8125 -42.15625 L 59.234375 -21.796875 L 55.0625 -42.15625 L 39.15625 -102.109375 L 9.328125 -102.109375 L 9.328125 0 L 28.96875 0 L 28.96875 -38.296875 L 26.53125 -88.34375 L 33.5625 -58.359375 L 48.765625 0 L 70.40625 0 L 85.328125 -57.359375 L 92.359375 -88.1875 L 89.921875 -38.296875 L 89.921875 0 L 109.703125 0 L 109.703125 -102.109375 L 79.453125 -102.109375 Z M 63.8125 -42.15625 "/></g></g></g></svg>